<?xml version="1.0" encoding="UTF-8" standalone="no"?>
<svg width="45px" height="36px" viewBox="0 0 45 36" version="1.1" xmlns="http://www.w3.org/2000/svg" xmlns:xlink="http://www.w3.org/1999/xlink">
    <!-- Generator: Sketch 3.7.2 (28276) - http://www.bohemiancoding.com/sketch -->
    <title>icon--humidity</title>
    <desc>Created with Sketch.</desc>
    <defs></defs>
    <g id="Welcome" stroke="none" stroke-width="1" fill="none" fill-rule="evenodd">
        <g id="Desktop-HD" transform="translate(-1217.000000, -80.000000)" fill="#FFFFFF">
            <g id="rain" transform="translate(1217.000000, 80.000000)">
                <g id="icon--humidity">
                    <g id="drop">
                        <path d="M25.1170674,14.0708919 C25.0883643,14.0139109 25.0596612,13.95693 25.002255,13.8999491 L14.9561758,0.623390945 L14.9274727,0.594900477 C14.6404419,0.25301486 14.2385987,0.0535815836 13.8367555,0.0535815836 C13.4349124,0.0535815836 13.0043661,0.25301486 12.7460384,0.594900477 L12.7173353,0.623390945 L2.69995915,13.8714586 C2.6138499,13.9284395 2.55644373,14.0424014 2.49903756,14.1278728 C0.891664886,16.4356007 0.0305723808,19.1421952 0.0305723808,21.9627515 C0.0305723808,29.5127256 6.23043842,35.6666667 13.8367555,35.6666667 C21.4430727,35.6666667 27.6429387,29.541216 27.6716418,21.991242 C27.6716418,19.1706857 26.7818462,16.4071103 25.1170674,14.0708919 L25.1170674,14.0708919 Z M13.8367555,34.2421433 C7.00542167,34.2421433 1.46572656,28.7434829 1.46572656,21.9627515 C1.46572656,19.4270999 2.24070981,17.0054101 3.70456707,14.9256059 C3.73327015,14.8971154 3.76197324,14.868625 3.79067632,14.8401345 L13.8367555,1.50659546 L23.8828348,14.7831536 L23.9115379,14.811644 C23.9402409,14.8401345 23.9402409,14.868625 23.968944,14.8971154 C25.4615044,17.0054101 26.2364876,19.4555903 26.2364876,21.991242 C26.2077845,28.7434829 20.6393863,34.2421433 13.8367555,34.2421433 L13.8367555,34.2421433 Z" id="Shape"></path>
                        <path d="M14.4108172,7.85996983 C14.6404419,7.54657469 14.5830357,7.0907272 14.2673018,6.86280345 C13.9515679,6.63487971 13.4923185,6.69186064 13.2626939,7.00525579 L5.94340758,16.7489959 L5.9147045,16.7774863 C4.88139349,18.3444621 4.33603491,20.0823806 4.33603491,21.9627515 C4.33603491,27.1765072 8.58409126,31.3930965 13.8367555,31.3930965 C14.2385987,31.3930965 14.5543326,31.0797013 14.5543326,30.6808348 C14.5543326,30.2819682 14.2385987,29.9685731 13.8367555,29.9685731 C9.3877776,29.9685731 5.77118908,26.3787741 5.77118908,21.9627515 C5.77118908,20.3672853 6.20173533,18.9142714 7.09153092,17.5752194 L14.4108172,7.85996983 L14.4108172,7.85996983 Z" id="Shape"></path>
                    </g>
                    <g id="drop--small" transform="translate(31.567164, 0.000000)">
                        <path d="M11.9605083,6.7004247 C11.9468401,6.67329092 11.933172,6.64615714 11.9058357,6.61902336 L7.12198848,0.296852831 L7.10832034,0.283285941 C6.97163899,0.120483267 6.7802851,0.0255150398 6.58893121,0.0255150398 C6.39757732,0.0255150398 6.1925553,0.120483267 6.06954208,0.283285941 L6.05587395,0.296852831 L1.28569483,6.60545647 C1.24469043,6.63259025 1.21735416,6.68685781 1.19001789,6.72755848 C0.424602327,7.82647653 0.0145582766,9.11533104 0.0145582766,10.4584531 C0.0145582766,14.0536788 2.96687544,16.984127 6.58893121,16.984127 C10.210987,16.984127 13.1633041,14.0672457 13.1769723,10.47202 C13.1769723,9.12889793 12.7532601,7.81290964 11.9605083,6.7004247 L11.9605083,6.7004247 Z M6.58893121,16.3057825 C3.33591508,16.3057825 0.697965027,13.6873728 0.697965027,10.4584531 C0.697965027,9.25099994 1.06700467,8.09781433 1.76407956,7.10743139 C1.77774769,7.0938645 1.79141583,7.08029761 1.80508396,7.06673072 L6.58893121,0.717426407 L11.3727785,7.03959694 L11.3864466,7.05316383 C11.4001147,7.06673072 11.4001147,7.08029761 11.4137829,7.0938645 C12.1245259,8.09781433 12.4935655,9.26456683 12.4935655,10.47202 C12.4798974,13.6873728 9.82827921,16.3057825 6.58893121,16.3057825 L6.58893121,16.3057825 Z" id="Shape"></path>
                        <path d="M6.86229391,3.74284278 C6.97163899,3.59360699 6.94430272,3.37653676 6.79395324,3.26800164 C6.64360375,3.15946653 6.42491359,3.18660031 6.31556851,3.33583609 L2.83019409,7.97571232 L2.81652595,7.98927921 C2.32447309,8.73545813 2.06477853,9.5630384 2.06477853,10.4584531 C2.06477853,12.9411939 4.08766251,14.9490936 6.58893121,14.9490936 C6.7802851,14.9490936 6.93063459,14.7998578 6.93063459,14.6099213 C6.93063459,14.4199849 6.7802851,14.2707491 6.58893121,14.2707491 C4.47037029,14.2707491 2.74818528,12.561321 2.74818528,10.4584531 C2.74818528,9.69870729 2.9532073,9.00679593 3.37691949,8.36915212 L6.86229391,3.74284278 L6.86229391,3.74284278 Z" id="Shape"></path>
                    </g>
                </g>
            </g>
        </g>
    </g>
</svg>