<?xml version="1.0" encoding="UTF-8" standalone="no"?>
<svg width="17px" height="51px" viewBox="0 0 17 51" version="1.1" xmlns="http://www.w3.org/2000/svg" xmlns:xlink="http://www.w3.org/1999/xlink">
    <!-- Generator: Sketch 3.7.2 (28276) - http://www.bohemiancoding.com/sketch -->
    <title>icon--thermometer</title>
    <desc>Created with Sketch.</desc>
    <defs></defs>
    <g id="Welcome" stroke="none" stroke-width="1" fill="none" fill-rule="evenodd">
        <g id="Desktop-HD" transform="translate(-618.000000, -368.000000)">
            <g id="temperature" transform="translate(618.000000, 324.000000)">
                <g id="icon--thermometer" transform="translate(0.000000, 44.000000)">
                    <path d="M10.1767957,37.6820614 C12.1697344,38.3755895 13.6,40.2707665 13.6,42.5 C13.6,45.3166523 11.3166523,47.6 8.5,47.6 C5.68334769,47.6 3.4,45.3166523 3.4,42.5 C3.4,40.2705569 4.83053436,38.3752334 6.82376617,37.6818659 C6.80813229,37.5886085 6.8,37.4927751 6.8,37.3950202 L6.8,28.9049798 C6.8,27.9443984 7.56111601,27.2 8.5,27.2 C9.44542984,27.2 10.2,27.9633456 10.2,28.9049798 L10.2,37.3950202 C10.2,37.493144 10.1920579,37.5890121 10.1767957,37.6820614 L10.1767957,37.6820614 L10.1767957,37.6820614 Z M11.9,36.6097188 C13.9325248,37.7854708 15.3,39.9830398 15.3,42.5 C15.3,46.2555365 12.2555365,49.3 8.5,49.3 C4.74446353,49.3 1.7,46.2555365 1.7,42.5 C1.7,39.9830398 3.06747524,37.7854708 5.1,36.6097188 L5.1,5.10611126 C5.1,3.21259751 6.62223185,1.7 8.5,1.7 C10.3908597,1.7 11.9,3.22496795 11.9,5.10611126 L11.9,36.6097188 L11.9,36.6097188 L11.9,36.6097188 L11.9,36.6097188 Z M13.6,35.6993773 C15.6645594,37.250128 17,39.7191096 17,42.5 C17,47.1944206 13.1944206,51 8.5,51 C3.80557937,51 0,47.1944206 0,42.5 C0,39.7191096 1.33544061,37.250128 3.4,35.6993773 L3.4,5.08427879 C3.4,2.28498459 5.68334786,0 8.5,0 C11.3109209,0 13.6,2.27630915 13.6,5.08427879 L13.6,35.6993773 L13.6,35.6993773 L13.6,35.6993773 L13.6,35.6993773 Z" id="thermometer-quarter" fill-opacity="0.831182065" fill="#534D80"></path>
                    <path d="M13.6,42.5 C13.6,45.3166523 11.3166523,47.6 8.5,47.6 C5.68334769,47.6 3.4,45.3166523 3.4,42.5 C3.4,40.2705569 4.83053436,38.3752334 6.82376617,37.6818659 C6.80813229,37.5886085 6.8,37.4927751 6.8,37.3950202 L6.8,15.8280567 C6.8,14.8674753 7.56111601,14.1230769 8.5,14.1230769 C9.44542984,14.1230769 10.2,14.8864225 10.2,15.8280567 L10.2,37.3950202 C10.2,37.493144 10.1920579,37.5890121 10.1767957,37.6820614 C12.1697344,38.3755895 13.6,40.2707665 13.6,42.5 Z" id="thermometer-quarter-path" fill="#F2536D"></path>
                </g>
            </g>
        </g>
    </g>
</svg>