<?xml version="1.0" encoding="UTF-8" standalone="no"?>
<svg width="60px" height="34px" viewBox="0 0 60 34" version="1.1" xmlns="http://www.w3.org/2000/svg" xmlns:xlink="http://www.w3.org/1999/xlink">
    <!-- Generator: Sketch 3.7.2 (28276) - http://www.bohemiancoding.com/sketch -->
    <title>icon--wind</title>
    <desc>Created with Sketch.</desc>
    <defs></defs>
    <g id="Welcome" stroke="none" stroke-width="1" fill="none" fill-rule="evenodd">
        <g id="Desktop-HD" transform="translate(-80.000000, -79.000000)" stroke-width="2" stroke="#FFFFFF">
            <g id="wind" transform="translate(80.000000, 80.000000)">
                <g id="icon--wind">
                    <path d="M0.398609756,21.2864 L47.9087195,21.2864 C53.8149553,21.2864 58.6030691,16.5409185 58.6030691,10.7119407 L58.6030691,10.7119407 C58.6030691,4.87134815 53.8015244,0.137481481 47.9036829,0.137481481 C41.9940894,0.137481481 37.2042967,4.86802963 37.2042967,10.7119407 M21.1560569,10.7136 C21.1560569,7.7933037 23.5299675,5.4272 26.5049106,5.4272 C29.4597073,5.4272 31.8537642,7.77339259 31.8537642,10.7136 C31.8537642,13.6338963 29.4546707,16 26.488122,16 L5.61315447,16 M37.2042967,29.2176593 C37.2042967,30.6778074 38.391252,31.8608593 39.8787236,31.8608593 L39.8787236,31.8608593 C41.356122,31.8608593 42.5531504,30.687763 42.5531504,29.2176593 L42.5531504,29.2176593 C42.5531504,27.7575111 41.3527642,26.5744593 39.8585772,26.5744593 L11.5026016,26.5744593" id="cloud-wind"></path>
                </g>
            </g>
        </g>
    </g>
</svg>