<?xml version="1.0" encoding="UTF-8" standalone="no"?>
<svg width="29px" height="30px" viewBox="0 0 29 30" version="1.1" xmlns="http://www.w3.org/2000/svg" xmlns:xlink="http://www.w3.org/1999/xlink">
    <!-- Generator: Sketch 3.7.2 (28276) - http://www.bohemiancoding.com/sketch -->
    <title>icon--plus</title>
    <desc>Created with Sketch.</desc>
    <defs></defs>
    <g id="Welcome" stroke="none" stroke-width="1" fill="none" fill-rule="evenodd">
        <g id="Desktop-HD" transform="translate(-711.000000, -877.000000)" fill="#FFFFFF">
            <g id="button--add" transform="translate(698.000000, 864.000000)">
                <path d="M27.32,13.52 C25.7,13.52 24.38,14.84 24.38,16.52 L24.38,24.98 L15.98,24.98 C14.3,24.98 12.98,26.3 12.98,27.98 C12.98,29.6 14.3,30.92 15.98,30.92 L24.38,30.92 L24.38,39.2 C24.38,40.82 25.7,42.14 27.32,42.14 C29,42.14 30.32,40.82 30.32,39.2 L30.32,30.92 L38.66,30.92 C40.28,30.92 41.6,29.6 41.6,27.98 C41.6,26.3 40.28,24.98 38.66,24.98 L30.32,24.98 L30.32,16.52 C30.32,14.84 29,13.52 27.32,13.52 L27.32,13.52 Z" id="icon--plus"></path>
            </g>
        </g>
    </g>
</svg>