<?xml version="1.0" encoding="UTF-8" standalone="no"?>
<svg width="23px" height="23px" viewBox="0 0 23 23" version="1.1" xmlns="http://www.w3.org/2000/svg" xmlns:xlink="http://www.w3.org/1999/xlink">
    <!-- Generator: Sketch 3.7.2 (28276) - http://www.bohemiancoding.com/sketch -->
    <title>icon--plus--rotated</title>
    <desc>Created with Sketch.</desc>
    <defs></defs>
    <g id="Welcome" stroke="none" stroke-width="1" fill="none" fill-rule="evenodd">
        <g id="Desktop-Add-HD" transform="translate(-1351.000000, -66.000000)" fill="#F2536D">
            <g id="button--add" transform="translate(1335.000000, 50.000000)">
                <path d="M27.7284567,12.8938983 C26.1084567,12.8938983 24.7884567,14.2138983 24.7884567,15.8938983 L24.7884567,24.3538983 L16.3884567,24.3538983 C14.7084567,24.3538983 13.3884567,25.6738983 13.3884567,27.3538983 C13.3884567,28.9738983 14.7084567,30.2938983 16.3884567,30.2938983 L24.7884567,30.2938983 L24.7884567,38.5738983 C24.7884567,40.1938983 26.1084567,41.5138983 27.7284567,41.5138983 C29.4084567,41.5138983 30.7284567,40.1938983 30.7284567,38.5738983 L30.7284567,30.2938983 L39.0684567,30.2938983 C40.6884567,30.2938983 42.0084567,28.9738983 42.0084567,27.3538983 C42.0084567,25.6738983 40.6884567,24.3538983 39.0684567,24.3538983 L30.7284567,24.3538983 L30.7284567,15.8938983 C30.7284567,14.2138983 29.4084567,12.8938983 27.7284567,12.8938983 L27.7284567,12.8938983 Z" id="icon--plus--rotated" transform="translate(27.698457, 27.203898) rotate(-315.000000) translate(-27.698457, -27.203898) "></path>
            </g>
        </g>
    </g>
</svg>